HIERARCHY
ROOT root
{
	OFFSET 0.000000 0.000000 0.000000
	CHANNELS 6 Xposition Yposition Zposition Zrotation Yrotation Xrotation
	JOINT lhip
	{
		OFFSET 0.058581 -0.082280 -0.017664
		CHANNELS 3 Zrotation Yrotation Xrotation
		JOINT lknee
		{
			OFFSET 0.043451 -0.386469 0.008037
			CHANNELS 3 Zrotation Yrotation Xrotation
			JOINT lankle
			{
				OFFSET -0.014790 -0.426874 -0.037428
				CHANNELS 3 Zrotation Yrotation Xrotation
				JOINT ltoe
				{
					OFFSET 0.041054 -0.060286 0.122042
					CHANNELS 3 Zrotation Yrotation Xrotation
					End Site
					{
						OFFSET 0.000000 0.000000 0.000000
					}
				}
			}
		}
	}
	JOINT rhip
	{
		OFFSET -0.060310 -0.090513 -0.013543
		CHANNELS 3 Zrotation Yrotation Xrotation
		JOINT rknee
		{
			OFFSET -0.043257 -0.383688 -0.004843
			CHANNELS 3 Zrotation Yrotation Xrotation
			JOINT rankle
			{
				OFFSET 0.019056 -0.420046 -0.034562
				CHANNELS 3 Zrotation Yrotation Xrotation
				JOINT rtoe
				{
					OFFSET -0.034840 -0.062106 0.130323
					CHANNELS 3 Zrotation Yrotation Xrotation
					End Site
					{
						OFFSET 0.000000 0.000000 0.000000
					}
				}
			}
		}
	}
	JOINT lowerback
	{
		OFFSET 0.004439 0.124404 -0.038385
		CHANNELS 3 Zrotation Yrotation Xrotation
		JOINT upperback
		{
			OFFSET 0.004488 0.137956 0.026820
			CHANNELS 3 Zrotation Yrotation Xrotation
			JOINT chest
			{
				OFFSET -0.002265 0.056032 0.002855
				CHANNELS 3 Zrotation Yrotation Xrotation
				JOINT lowerneck
				{
					OFFSET -0.013390 0.211636 -0.033468
					CHANNELS 3 Zrotation Yrotation Xrotation
					JOINT upperneck
					{
						OFFSET 0.010113 0.088937 0.050410
						CHANNELS 3 Zrotation Yrotation Xrotation
						End Site
						{
							OFFSET 0.000000 0.000000 0.000000
						}
					}
				}
				JOINT lclavicle
				{
					OFFSET 0.071702 0.114000 -0.018898
					CHANNELS 3 Zrotation Yrotation Xrotation
					JOINT lshoulder
					{
						OFFSET 0.122921 0.045205 -0.019046
						CHANNELS 3 Zrotation Yrotation Xrotation
						JOINT lelbow
						{
							OFFSET 0.255332 -0.015649 -0.022946
							CHANNELS 3 Zrotation Yrotation Xrotation
							JOINT lwrist
							{
								OFFSET 0.265709 0.012698 -0.007375
								CHANNELS 3 Zrotation Yrotation Xrotation
								End Site
								{
									OFFSET 0.000000 0.000000 0.000000
								}
							}
						}
					}
				}
				JOINT rclavicle
				{
					OFFSET -0.082954 0.112472 -0.023707
					CHANNELS 3 Zrotation Yrotation Xrotation
					JOINT rshoulder
					{
						OFFSET -0.113228 0.046853 -0.008472
						CHANNELS 3 Zrotation Yrotation Xrotation
						JOINT relbow
						{
							OFFSET -0.260127 -0.014369 -0.031269
							CHANNELS 3 Zrotation Yrotation Xrotation
							JOINT rwrist
							{
								OFFSET -0.269108 0.006794 -0.006027
								CHANNELS 3 Zrotation Yrotation Xrotation
								End Site
								{
									OFFSET 0.000000 0.000000 0.000000
								}
							}
						}
					}
				}
			}
		}
	}
}
MOTION
Frames: 14
Frame Time: 0.033333
0.564144 0.425288 0.978733 -81.248533 -4.242458 98.211719 8.076680 -3.873084 0.616482 -11.194411 -12.856019 61.181807 -0.299015 9.163043 -16.801719 0.000000 -0.000000 0.000000 -4.862201 0.089877 -25.649981 2.796933 -1.669996 21.952383 0.862088 -5.038619 -11.488768 0.000000 -0.000000 0.000000 -0.145735 -6.544183 14.096654 3.875134 -5.712630 4.495548 -0.271829 -4.389111 5.536664 3.029449 4.969314 10.336416 1.553719 1.905698 11.669425 -17.482748 3.443582 3.473309 -55.108818 -16.106111 11.255118 9.997932 -54.585664 8.010724 2.261026 -4.300729 -20.580759 20.969584 -6.496156 1.699614 60.612994 -0.900428 12.463138 -14.601499 35.184976 0.262097 10.207235 2.470772 -12.976008 
0.557899 0.429526 0.977896 -82.436240 -3.403124 96.825782 6.610081 -4.137904 -3.386436 -10.894573 -9.478634 66.066475 0.320119 9.349447 -17.475029 0.000000 -0.000000 0.000000 -3.409745 0.964667 -23.554492 2.534239 -1.004371 21.485259 0.470172 -4.982467 -12.019780 0.000000 -0.000000 0.000000 0.054295 -5.516064 15.145510 4.085510 -5.607448 4.574884 -0.277368 -3.890711 5.654368 2.822545 4.452960 10.950822 1.677493 1.633950 11.759676 -17.568696 3.020111 3.867325 -56.091456 -14.867926 11.470033 8.531935 -53.963809 10.667853 1.928099 -4.298425 -19.744081 20.394780 -5.852301 2.092899 61.134016 -0.380182 12.135923 -15.389571 35.951660 -0.177673 9.223393 2.594146 -14.103236 
0.552138 0.433723 0.976586 -83.412459 -2.882339 95.921026 5.122868 -4.764728 -8.021900 -10.558771 -6.264796 68.667020 0.250229 9.253649 -18.151403 0.000000 -0.000000 0.000000 -2.214343 1.648203 -22.431965 2.106006 -0.397945 21.859662 0.234968 -4.917435 -12.837889 0.000000 -0.000000 0.000000 -0.040556 -4.482012 15.853854 4.273591 -5.458556 3.999293 -0.294202 -3.569365 6.241774 2.889417 4.792283 11.168889 1.437831 1.726556 12.048082 -17.959950 3.312580 3.680187 -56.819713 -13.440655 11.962322 7.300424 -52.628586 12.738413 1.373097 -4.695031 -18.495261 20.408640 -5.965349 1.927806 61.236948 0.194187 12.349263 -16.088499 36.305810 -0.354634 9.732650 2.658372 -14.979881 
0.546154 0.436843 0.975257 -84.171513 -2.271133 94.709754 3.813953 -5.259806 -12.094433 -10.277554 -4.171783 69.004111 0.512083 9.147920 -18.348117 0.000000 -0.000000 0.000000 -1.018063 2.002504 -20.912039 1.934636 0.342734 22.254980 -0.032576 -4.871122 -13.632084 0.000000 -0.000000 0.000000 0.143471 -3.534979 16.623833 4.397963 -5.378794 3.676732 -0.299671 -3.197556 6.402011 3.066427 4.236352 11.977600 1.579195 1.514872 12.178977 -18.606736 3.684191 3.818449 -57.451814 -12.147606 11.900271 6.312480 -50.800450 14.201044 0.244773 -4.264357 -17.586873 20.366109 -5.993509 2.180476 61.079429 0.575020 12.137867 -16.362962 36.872952 -0.288224 9.627710 2.746831 -15.380407 
0.541199 0.439528 0.974020 -84.877564 -1.992186 93.986809 2.375227 -6.187979 -16.018343 -9.779562 -2.588496 66.874438 0.974061 9.042720 -18.773333 0.000000 -0.000000 0.000000 -0.275143 2.543879 -20.141711 1.618993 0.731547 22.961649 -0.029279 -4.867851 -14.348892 0.000000 -0.000000 0.000000 -0.002394 -2.531966 17.044719 4.437965 -5.227776 2.952835 -0.270936 -2.947560 6.953681 3.321704 4.132480 12.485825 1.616395 1.405310 12.073734 -19.105435 4.280291 3.739018 -58.259942 -10.942447 12.094206 6.243442 -48.083816 14.780517 -0.287630 -4.068244 -16.251752 20.462290 -6.386825 1.884563 61.061338 0.668425 12.436334 -16.732612 37.153808 -0.120785 9.768990 2.818182 -15.896308 
0.535306 0.441897 0.972552 -84.924560 -1.611345 93.091004 1.310567 -7.040642 -19.023720 -9.566782 -2.312051 62.866993 1.256554 8.752465 -19.520221 0.000000 -0.000000 0.000000 0.524634 2.588447 -18.741135 1.484825 0.933390 23.174147 -0.175624 -5.079807 -15.130105 0.000000 -0.000000 0.000000 0.174796 -1.779395 17.110170 4.498308 -5.529679 2.902409 -0.308347 -2.803356 7.001306 3.542611 3.509073 13.235335 1.880821 0.821047 12.377630 -19.589212 4.698419 4.352771 -58.964814 -9.730016 11.726341 7.252851 -45.752087 14.300477 -1.562478 -3.780548 -15.687861 20.275351 -6.585184 2.154219 61.411232 0.828458 12.181260 -17.124262 37.261977 0.276741 10.541903 3.142542 -16.455907 
0.532215 0.443747 0.971201 -84.874390 -1.194727 92.847474 0.635178 -8.444095 -21.925871 -9.415764 -2.477183 57.283739 1.739695 8.782091 -20.229184 0.000000 -0.000000 0.000000 1.112420 2.759297 -18.438920 1.707630 1.308271 23.563940 -0.063702 -5.468267 -15.286682 0.000000 -0.000000 0.000000 0.330035 -1.346061 16.614186 4.542958 -5.611818 2.756777 -0.389815 -2.676759 7.814863 3.922734 4.312252 13.021129 1.500793 0.848254 12.487070 -19.867177 5.524768 4.017238 -59.725673 -9.011864 11.867238 7.786608 -42.873441 13.027409 -1.244762 -3.752471 -15.414494 20.395139 -6.949790 2.005378 61.572715 1.372250 12.829475 -17.565598 36.853759 -0.390785 9.176380 3.123029 -16.673407 
0.527585 0.445408 0.970817 -85.219845 -0.787094 91.849845 -0.320070 -8.795714 -22.326003 -9.382756 -4.350525 50.895381 2.629759 9.094188 -21.361019 0.000000 -0.000000 0.000000 1.934239 2.712653 -17.215803 1.685461 1.829652 24.044648 0.027826 -5.571601 -16.025067 0.000000 -0.000000 0.000000 0.270308 -1.031371 17.216524 4.426356 -5.495568 2.468571 -0.258665 -2.393975 7.673367 4.047818 3.458170 13.902529 2.024527 0.039403 12.577866 -20.176574 5.929003 4.433421 -60.172321 -7.761496 11.242667 8.526683 -40.358919 11.930004 -1.116391 -3.027361 -15.067623 20.343257 -6.677708 2.486088 61.799552 1.119682 12.384936 -17.773227 36.958788 -0.531281 9.463491 3.501683 -16.866313 
0.522753 0.446790 0.970105 -85.868831 -0.336775 91.040366 -0.941178 -9.126369 -21.802752 -8.984256 -6.228549 44.653221 3.636810 9.809182 -21.525502 0.000000 -0.000000 0.000000 2.693169 3.185456 -15.981239 1.764513 2.236781 24.156763 -0.182291 -5.880738 -16.461405 0.000000 -0.000000 0.000000 0.200960 -0.550643 16.953909 4.253792 -5.220914 2.886407 -0.179388 -2.224540 8.090461 4.436011 3.758025 14.062263 1.892804 0.046234 12.534407 -20.451502 6.233305 4.261662 -60.500536 -6.899916 11.004049 9.398632 -37.718599 10.211887 -1.235447 -2.905084 -15.041019 20.339832 -6.521554 2.311576 62.061741 1.062745 12.693362 -17.790373 36.550037 -0.727843 9.217588 3.721396 -17.141116 
0.517209 0.448173 0.969430 -86.733403 0.165077 90.047044 -1.214464 -9.134706 -20.134829 -8.218488 -7.424913 38.803109 4.046038 10.617083 -22.267735 0.000000 -0.000000 0.000000 3.683568 3.597512 -14.673293 1.710266 2.883169 24.679610 -0.429353 -6.156038 -17.213249 0.000000 -0.000000 0.000000 -0.020820 0.016359 16.718348 4.199996 -4.910472 3.321887 0.016961 -2.100717 7.873858 4.619835 3.404905 15.254586 2.210806 -0.490569 12.755796 -20.504708 6.365513 4.847529 -61.004675 -5.973491 10.325042 10.250251 -35.270030 9.046322 -1.302745 -2.198044 -15.214531 20.093502 -6.201322 2.969145 62.477992 0.820776 12.403277 -17.903176 36.475523 -0.362033 8.954037 3.632623 -17.472585 
0.512306 0.449421 0.968538 -86.849356 0.942793 89.404315 -1.125894 -8.884398 -18.252385 -7.561426 -8.942312 34.078902 4.041964 10.766343 -20.631900 0.000000 -0.000000 0.000000 4.747383 4.066981 -13.763260 1.738427 2.735911 25.032921 -0.689367 -6.652564 -17.944700 0.000000 -0.000000 0.000000 0.026865 -0.320553 16.224517 4.134529 -4.643178 3.730785 0.097511 -2.066323 8.162199 4.971329 4.056754 15.139588 1.635800 -0.096965 12.945254 -20.655939 7.070005 4.388662 -61.319697 -5.257432 9.997249 10.923549 -32.951022 8.000376 -2.107589 -1.743886 -15.436091 20.233419 -6.499016 2.465745 62.625853 0.674870 12.832524 -17.790895 36.207617 0.080154 9.405380 3.773847 -17.458188 
0.506883 0.450684 0.966568 -86.757125 1.850217 89.187652 -0.870019 -8.259996 -16.401259 -7.096311 -11.066973 30.746667 6.182098 10.732636 -17.459848 0.000000 -0.000000 0.000000 5.857118 4.339738 -13.335100 1.997119 2.650094 25.534375 -1.482932 -7.273633 -18.427684 0.000000 -0.000000 0.000000 0.078032 -0.840264 15.099300 4.102625 -4.435836 3.855880 0.170898 -2.149712 8.404071 5.179589 4.357752 15.525951 1.631482 0.578934 13.252519 -20.725200 7.715235 4.639490 -61.232801 -4.612395 9.558824 10.959375 -31.611024 7.018047 -1.264884 -1.031490 -15.432114 20.342528 -6.618235 2.670262 62.596261 0.455942 12.918681 -17.358160 36.045017 0.245807 8.515140 3.757029 -17.496438 
0.499144 0.451047 0.965592 -87.182531 2.381018 87.920519 -1.178837 -6.508974 -12.671042 -6.116003 -12.759621 28.417790 6.802571 11.867275 -20.080948 0.000000 -0.000000 0.000000 6.710692 4.348229 -11.289039 2.118776 3.058727 25.474344 -1.505717 -7.432763 -19.208993 0.000000 -0.000000 0.000000 -0.362618 -0.958710 14.871433 4.033445 -4.363732 4.406878 0.407804 -2.114004 7.992520 5.494743 3.997454 16.390933 1.715230 0.622343 13.659997 -20.869586 7.985928 4.944018 -61.299536 -3.852309 8.534974 11.179089 -30.140441 6.520707 -1.208229 -0.851666 -15.354150 20.353724 -6.654362 2.772052 62.724783 0.019399 12.355147 -16.891831 35.689661 0.818383 8.422674 3.774399 -17.395179 
0.490802 0.450857 0.965461 -86.783082 2.507601 86.639659 -1.603691 -5.314675 -8.872948 -5.242029 -14.365132 25.267248 7.318463 12.048289 -21.695085 0.000000 -0.000000 0.000000 7.167982 3.612822 -9.143403 2.066167 3.624780 25.236700 -1.380332 -7.762783 -19.838470 0.000000 -0.000000 0.000000 -1.193048 -0.969601 14.602138 4.056846 -4.769832 5.424513 0.743174 -2.147796 7.718658 5.790647 4.155630 16.354701 1.698896 0.721489 13.560766 -21.120599 7.575780 5.025280 -61.216317 -3.667308 7.955728 11.325214 -28.369926 5.470755 -0.075031 -0.799565 -15.241086 20.602708 -6.344062 2.427082 63.102269 -0.401601 12.040064 -17.225573 34.587834 -0.183013 7.454296 3.476891 -16.875666 
